<svg xmlns="http://www.w3.org/2000/svg" xmlns:xlink="http://www.w3.org/1999/xlink" xmlns:s="https://github.com/nturley/netlistsvg" width="467" height="249.5">
  <style>svg {
    stroke:#000;
    fill:none;
  }
  text {
    fill:#000;
    stroke:none;
    font-size:10px;
    font-weight: bold;
    font-family: "Courier New", monospace;
  }
  .nodelabel {
    text-anchor: middle;
  }
  .inputPortLabel {
    text-anchor: end;
  }
  .splitjoinBody {
    fill:#000;
  }</style>
  <g s:type="generic" transform="translate(102,152)" s:width="30" s:height="40" id="cell_ContadorConEcho_i1">
    <text x="15" y="-4" class="nodelabel cell_ContadorConEcho_i1" s:attribute="ref">ContadorConEcho</text>
    <rect width="30" height="40" s:generic="body" class="cell_ContadorConEcho_i1"/>
    <g transform="translate(0,10)" s:x="0" s:y="10" s:pid="in0" id="port_ContadorConEcho_i1~clk">
      <text x="-3" y="-4" class="inputPortLabel cell_ContadorConEcho_i1">clk</text>
    </g>
    <g transform="translate(0,30)" s:x="0" s:y="10" s:pid="in0" id="port_ContadorConEcho_i1~echo">
      <text x="-3" y="-4" class="inputPortLabel cell_ContadorConEcho_i1">echo</text>
    </g>
    <g transform="translate(30,10)" s:x="30" s:y="10" s:pid="out0" id="port_ContadorConEcho_i1~contador2">
      <text x="5" y="-4" style="fill:#000; stroke:none" class="cell_ContadorConEcho_i1">contador2</text>
    </g>
  </g>
  <g s:type="generic" transform="translate(264,22)" s:width="30" s:height="40" id="cell_ContadorConTrigger_i0">
    <text x="15" y="-4" class="nodelabel cell_ContadorConTrigger_i0" s:attribute="ref">ContadorConTrigger</text>
    <rect width="30" height="20" s:generic="body" class="cell_ContadorConTrigger_i0"/>
    <g transform="translate(0,10)" s:x="0" s:y="10" s:pid="in0" id="port_ContadorConTrigger_i0~clk">
      <text x="-3" y="-4" class="inputPortLabel cell_ContadorConTrigger_i0">clk</text>
    </g>
    <g transform="translate(30,10)" s:x="30" s:y="10" s:pid="out0" id="port_ContadorConTrigger_i0~trigger">
      <text x="5" y="-4" style="fill:#000; stroke:none" class="cell_ContadorConTrigger_i0">trigger</text>
    </g>
  </g>
  <g s:type="generic" transform="translate(300,132)" s:width="30" s:height="40" id="cell_ControlLed_i2">
    <text x="15" y="-4" class="nodelabel cell_ControlLed_i2" s:attribute="ref">ControlLed</text>
    <rect width="30" height="60" s:generic="body" class="cell_ControlLed_i2"/>
    <g transform="translate(0,10)" s:x="0" s:y="10" s:pid="in0" id="port_ControlLed_i2~clk">
      <text x="-3" y="-4" class="inputPortLabel cell_ControlLed_i2">clk</text>
    </g>
    <g transform="translate(0,30)" s:x="0" s:y="10" s:pid="in0" id="port_ControlLed_i2~contador2">
      <text x="-3" y="-4" class="inputPortLabel cell_ControlLed_i2">contador2</text>
    </g>
    <g transform="translate(30,10)" s:x="30" s:y="10" s:pid="out0" id="port_ControlLed_i2~led1">
      <text x="5" y="-4" style="fill:#000; stroke:none" class="cell_ControlLed_i2">led1</text>
    </g>
    <g transform="translate(30,30)" s:x="30" s:y="10" s:pid="out0" id="port_ControlLed_i2~led2">
      <text x="5" y="-4" style="fill:#000; stroke:none" class="cell_ControlLed_i2">led2</text>
    </g>
    <g transform="translate(30,50)" s:x="30" s:y="10" s:pid="out0" id="port_ControlLed_i2~led3">
      <text x="5" y="-4" style="fill:#000; stroke:none" class="cell_ControlLed_i2">led3</text>
    </g>
  </g>
  <g s:type="inputExt" transform="translate(12,22.5)" s:width="30" s:height="20" id="cell_clk">
    <text x="15" y="-4" class="nodelabel cell_clk" s:attribute="ref">clk</text>
    <s:alias val="$_inputExt_"/>
    <path d="M0,0 L0,20 L15,20 L30,10 L15,0 Z" class="cell_clk"/>
    <g s:x="28" s:y="10" s:pid="Y"/>
  </g>
  <g s:type="inputExt" transform="translate(12,172.5)" s:width="30" s:height="20" id="cell_echo">
    <text x="15" y="-4" class="nodelabel cell_echo" s:attribute="ref">echo</text>
    <s:alias val="$_inputExt_"/>
    <path d="M0,0 L0,20 L15,20 L30,10 L15,0 Z" class="cell_echo"/>
    <g s:x="28" s:y="10" s:pid="Y"/>
  </g>
  <g s:type="outputExt" transform="translate(425,22.5)" s:width="30" s:height="20" id="cell_trig">
    <text x="15" y="-4" class="nodelabel cell_trig" s:attribute="ref">trig</text>
    <s:alias val="$_outputExt_"/>
    <path d="M30,0 L30,20 L15,20 L0,10 L15,0 Z" class="cell_trig"/>
    <g s:x="0" s:y="10" s:pid="A"/>
  </g>
  <g s:type="outputExt" transform="translate(425,87.5)" s:width="30" s:height="20" id="cell_led1">
    <text x="15" y="-4" class="nodelabel cell_led1" s:attribute="ref">led1</text>
    <s:alias val="$_outputExt_"/>
    <path d="M30,0 L30,20 L15,20 L0,10 L15,0 Z" class="cell_led1"/>
    <g s:x="0" s:y="10" s:pid="A"/>
  </g>
  <g s:type="outputExt" transform="translate(425,152.5)" s:width="30" s:height="20" id="cell_led2">
    <text x="15" y="-4" class="nodelabel cell_led2" s:attribute="ref">led2</text>
    <s:alias val="$_outputExt_"/>
    <path d="M30,0 L30,20 L15,20 L0,10 L15,0 Z" class="cell_led2"/>
    <g s:x="0" s:y="10" s:pid="A"/>
  </g>
  <g s:type="outputExt" transform="translate(425,217.5)" s:width="30" s:height="20" id="cell_led3">
    <text x="15" y="-4" class="nodelabel cell_led3" s:attribute="ref">led3</text>
    <s:alias val="$_outputExt_"/>
    <path d="M30,0 L30,20 L15,20 L0,10 L15,0 Z" class="cell_led3"/>
    <g s:x="0" s:y="10" s:pid="A"/>
  </g>
  <line x1="40" x2="52" y1="32.5" y2="32.5" class="net_2"/>
  <line x1="52" x2="52" y1="32.5" y2="162.5" class="net_2"/>
  <circle cx="52" cy="32.5" r="2" style="fill:#000" class="net_2"/>
  <line x1="52" x2="102" y1="162.5" y2="162.5" class="net_2"/>
  <line x1="40" x2="264" y1="32.5" y2="32.5" class="net_2"/>
  <line x1="40" x2="220" y1="32.5" y2="32.5" class="net_2"/>
  <line x1="220" x2="220" y1="32.5" y2="142.5" class="net_2"/>
  <circle cx="220" cy="32.5" r="2" style="fill:#000" class="net_2"/>
  <line x1="220" x2="300" y1="142.5" y2="142.5" class="net_2"/>
  <line x1="40" x2="102" y1="182.5" y2="182.5" class="net_3"/>
  <line x1="133" x2="300" y1="162.5" y2="162.5" class="net_8,9,10,11,12,13,14,15,16,17,18,19,20,21,22,23,24,25,26,27"/>
  <line x1="295" x2="425" y1="32.5" y2="32.5" class="net_4"/>
  <line x1="331" x2="400" y1="142.5" y2="142.5" class="net_5"/>
  <line x1="400" x2="400" y1="142.5" y2="97.5" class="net_5"/>
  <line x1="400" x2="425" y1="97.5" y2="97.5" class="net_5"/>
  <line x1="331" x2="425" y1="162.5" y2="162.5" class="net_6"/>
  <line x1="331" x2="400" y1="182.5" y2="182.5" class="net_7"/>
  <line x1="400" x2="400" y1="182.5" y2="227.5" class="net_7"/>
  <line x1="400" x2="425" y1="227.5" y2="227.5" class="net_7"/>
</svg>
